<svg xmlns="http://www.w3.org/2000/svg" xmlns:xlink="http://www.w3.org/1999/xlink" viewBox="0 0 658.56 919.72">
    <defs>
        <style>.cls-1,.cls-2,.cls-3,.cls-4,.cls-5,.cls-6,.cls-7{fill:none;}.cls-2,.cls-3,.cls-4,.cls-5,.cls-6,.cls-7{stroke:#000;}.cls-2{stroke-width:10.64px;}.cls-3{stroke-width:11.6px;}.cls-4{stroke-width:12.9px;}.cls-5{stroke-width:10px;}.cls-6{stroke-width:10.8px;}.cls-7{stroke-width:7.8px;}.cls-10,.cls-11,.cls-12,.cls-14,.cls-15,.cls-16,.cls-17,.cls-18,.cls-22,.cls-8{fill:#ff8080;}.cls-10,.cls-14,.cls-15,.cls-17,.cls-8{stroke:#f20000;}.cls-8{stroke-width:0.82px;}.cls-10,.cls-11,.cls-12,.cls-14,.cls-15,.cls-16,.cls-17,.cls-18,.cls-20,.cls-22,.cls-8{fill-rule:evenodd;}.cls-13,.cls-19,.cls-21,.cls-23,.cls-9{fill:#ff2a2a;fill-opacity:0.97;}.cls-10{stroke-width:0.8px;}.cls-11{stroke:#f12727;}.cls-11,.cls-16{stroke-width:0.96px;}.cls-12{stroke:#f71e3c;stroke-opacity:0.94;stroke-width:1.38px;}.cls-13,.cls-19,.cls-21,.cls-23{stroke-linecap:round;stroke-width:6.06px;}.cls-13{stroke:url(#linear-gradient);}.cls-14{stroke-width:0.89px;}.cls-15{stroke-width:1px;}.cls-16{stroke:#e51515;}.cls-17{stroke-width:0.7px;}.cls-18{stroke:#f02614;stroke-width:0.94px;}.cls-19{stroke:url(#linear-gradient-2);}.cls-20{fill:#f68280;stroke:#cb1e01;stroke-opacity:0.83;stroke-width:0.86px;}.cls-21{stroke:url(#linear-gradient-3);}.cls-22{stroke:#d41515;stroke-width:0.85px;}.cls-23{stroke:url(#linear-gradient-4);}</style>
        <linearGradient id="linear-gradient" x1="-594.38" y1="751.1" x2="-454.16" y2="751.1" gradientTransform="matrix(1.21, 0, 0, -0.94, -813.1, 1118.84)" gradientUnits="userSpaceOnUse">
            <stop offset="0" stop-color="#d3b8d8" />
            <stop offset="1" stop-color="#d3b8d8" stop-opacity="0" />
        </linearGradient>
        <linearGradient id="linear-gradient-2" x1="183.47" y1="736.1" x2="323.69" y2="736.1" gradientTransform="matrix(0.65, 0, 0, -0.8, -350.25, 1061.17)" gradientUnits="userSpaceOnUse">
            <stop offset="0" />
            <stop offset="1" stop-opacity="0" />
        </linearGradient>
        <linearGradient id="linear-gradient-3" x1="-240.98" y1="733.34" x2="-100.76" y2="733.34" gradientTransform="matrix(1.21, 0, 0, -0.94, -552.66, 815.43)" xlink:href="#linear-gradient-2" />
        <linearGradient id="linear-gradient-4" x1="-86.69" y1="883.81" x2="53.52" y2="883.81" gradientTransform="matrix(0.86, 0.18, 0.27, -0.79, -483.8, 738.4)" xlink:href="#linear-gradient-2" />
    </defs>
    <g id="svg2">
        <path id="path2164" class="cls-1" d="M412.88,915.43,574.24,94.06" transform="translate(-27.13 -20.68)" />
        <path id="path2166" class="cls-2" d="M456.68,685.09,327.59,579.74l-85.3-125L57.88,336.9" transform="translate(-27.13 -20.68)" />
        <path id="path3139" class="cls-3" d="M438.23,940.39V835.08L489,453V188.7L548.88,22.64" transform="translate(-27.13 -20.68)" />
        <path id="path3259" class="cls-2" d="M362.16,610.09,364.47,578" transform="translate(-27.13 -20.68)" />
        <path id="path3261" class="cls-2" d="M299.92,540.46l-53-5.36" transform="translate(-27.13 -20.68)" />
        <path id="path3265" class="cls-2" d="M276.87,504.74l9.22-25" transform="translate(-27.13 -20.68)" />
        <path id="path3267" class="cls-2" d="M237.68,453,242.29,419" transform="translate(-27.13 -20.68)" />
        <path id="path3269" class="cls-2" d="M205.41,429.75,157,433.32" transform="translate(-27.13 -20.68)" />
        <path id="path3271" class="cls-2" d="M127,381.54l-4.61-33.93" transform="translate(-27.13 -20.68)" />
        <path id="path3273" class="cls-2" d="M514.31,111.92l48.4-26.79" transform="translate(-27.13 -20.68)" />
        <path id="path3275" class="cls-2" d="M486.64,185.13l-76.07-60.71" transform="translate(-27.13 -20.68)" />
        <path id="path3277" class="cls-2" d="M489,247.62l39.19-23.21" transform="translate(-27.13 -20.68)" />
        <path id="path3279" class="cls-2" d="M489,286.9l-43.8-32.14" transform="translate(-27.13 -20.68)" />
        <path id="path3281" class="cls-2" d="M493.57,370l43.77-34.08" transform="translate(-27.13 -20.68)" />
        <path id="path3289" class="cls-2" d="M477.42,526.17l-36.88-55.35" transform="translate(-27.13 -20.68)" />
        <path id="path3291" class="cls-2" d="M472.11,583.12,515,556.71" transform="translate(-27.13 -20.68)" />
        <path id="path3293" class="cls-2" d="M394.66,636.88l-48.41,1.78" transform="translate(-27.13 -20.68)" />
        <path id="path3233" class="cls-2" d="M489.19,449.67l42-35.39" transform="translate(-27.13 -20.68)" />
        <path id="path3760" class="cls-4" d="M449.52,764.64l167.77-95.32" transform="translate(-27.13 -20.68)" />
        <path id="path3839" class="cls-5" d="M501,736l5.72-34.31" transform="translate(-27.13 -20.68)" />
        <path id="path3841" class="cls-6" d="M532.25,714.79h47.66" transform="translate(-27.13 -20.68)" />
        <path id="path3843" class="cls-7" d="M564.66,697.73,591.35,652" transform="translate(-27.13 -20.68)" />
    </g>
    <g id="flower-5">
        <path id="path3263" class="cls-8" d="M329.83,617.57c-2.21-3.68-2.25-15,0-22,3.13-9.72,10.45-8.64,19.5-6.89,7.22,1.4,2.38,5.51,15.95,5.51,10.24,0,7.36,8.8,5.32,15.14-1.6,5-11,9.64-17.73,9.64-8.84,0-1.64,3.07,7.09,1.37,9.14-1.77,12.34-2.69,17.73-6.88,7.07-5.49,19.79,4.37,21.26,5.51,4,3.1-7.09,10-7.09,15.14,0,8.23,1.6,8.39-5.31,13.76-8.66,6.72-20.44-3-24.81-5.5-5.24-3.05-6.43-10-8.87-13.77-3.26-5.07,2.05,11.44,5.32,16.52,5,7.79,3.44,13.77-7.09,13.77-11.66,0-11.1-3.35-21.27-1.38-9.75,1.89-17.72.22-17.72-8.26,0-8.31,1.74-12.28,3.55-17.89,2.64-8.21-2.91,9-3.55,11-1.81,5.63-13.48,5.5-21.26,5.5-8.52,0-10-7.19-12.41-11-3.59-5.57-10.56-3-7.09-13.76,1.55-4.83,17.07-2.76,23-2.76,8.5,0,22.75-1.37,7.09-1.37a54.61,54.61,0,0,1-21.27-4.13c-6.56-2.55-8.86-7-8.86-13.77,0-10.71,13.34-5.83,17.72-4.13s9.15-4.93,14.18-6.88c9.75-3.79,12.92,7.11,14.18,11,2.93,9.1,9.5,5.26,12.4,16.52Z" transform="translate(-27.13 -20.68)" />
        <path id="path3266" class="cls-9" d="M342.9,631.35c-7.23,3.69-17.17,2.37-22.2-2.93s-3.23-12.6,4-16.29,17.18-2.37,22.2,2.93,3.28,12.46-3.8,16.19" transform="translate(-27.13 -20.68)" />
        <path id="path3513" class="cls-10" d="M356.34,554.45c-2.21,3.53-2.25,14.37,0,21.08,3.13,9.29,10.45,8.26,19.5,6.58,7.22-1.34,2.38-5.27,16-5.27,10.24,0,7.36-8.42,5.32-14.48-1.6-4.76-10.95-9.22-17.73-9.22-8.84,0-1.64-2.94,7.09-1.32,9.14,1.7,12.33,2.58,17.72,6.58,7.08,5.26,19.8-4.17,21.27-5.26,4-3-7.09-9.54-7.09-14.49,0-7.87,1.6-8-5.31-13.17-8.66-6.43-20.45,2.83-24.82,5.27-5.23,2.92-6.42,9.55-8.86,13.17-3.26,4.85,2.05-10.95,5.32-15.81,5-7.45,3.44-13.17-7.09-13.17-11.66,0-11.1,3.21-21.27,1.32-9.76-1.82-17.72-.21-17.72,7.9,0,8,1.74,11.75,3.55,17.12,2.64,7.85-2.91-8.63-3.55-10.53-1.81-5.39-13.48-5.27-21.27-5.27-8.51,0-9.94,6.88-12.4,10.53-3.59,5.34-10.57,2.84-7.09,13.17,1.55,4.62,17.07,2.64,23,2.64,8.5,0,22.75,1.32,7.09,1.32a56.63,56.63,0,0,0-21.27,4c-6.56,2.44-8.86,6.69-8.86,13.17,0,10.25,13.34,5.58,17.72,4s9.15,4.72,14.18,6.59c9.75,3.62,12.92-6.81,14.18-10.54,2.93-8.7,9.5-5,12.4-15.81Z" transform="translate(-27.13 -20.68)" />
        <path id="path3515" class="cls-9" d="M369.41,541.26c-7.23-3.53-17.17-2.28-22.2,2.8s-3.23,12.06,4,15.58,17.18,2.28,22.2-2.8,3.28-11.92-3.8-15.49" transform="translate(-27.13 -20.68)" />
        <path id="path4412" class="cls-11" d="M215.48,525c-5.92,1.37-23.33-10.37-30.91-13.87-15-6.92-12.75-10.58-5-17.2,3-2.6,8.27-3.27,12.23-5.09,3.72-1.69-5-12.18,11.77-7.37,8.24,2.36,17.93,11,22.43,15.74,12,12.54,8.52,6.53,1.26-1.07-3.79-4-3.54-15-2.52-19.34,2.62-11.2,10.62,1.66,19.45-5.89,7.48-6.4,13.39-.38,23.53,6.74,6.75,4.74-6.15,13.46-7.68,20-.52,2.24-1,4.48-1.57,6.72-1.64,7,10-11.21,15.84-16.23,7.67-6.57,16.83,3.74,21.49,11.17,5.06,8-.06,9.06,13.5,15.32,5.79,2.68-6.26,14.55-8.16,17.72-4,6.66-16.78,3.85-23.84-1.1a97.39,97.39,0,0,0-15.06-8.61c-9.33-4.31,15.19,12.33,21.65,19.09,7.64,8-2.67,12.72-8.62,15.44-8.66,4-5.57-.62-16,8.31-3.88,3.31-18.37-5.08-20.55-6.61-7.21-5.06,4.84-12.32,3.45-19.07-2.07-10-2.91-.26-6.28,5.37-4,6.66-3.74,11.26-11.13,17.58-7.93,6.78-18.55-1.53-23.53-6.74-9.79-10.26,3.06-11.17-14.28-12-17.55-.81-8.41-17-4.24-20.56,9.25-7.9,17.73-3.76,32.79,1.52Z" transform="translate(-27.13 -20.68)" />
        <path id="path4414" class="cls-9" d="M253.92,532.1c-8.73,5.54-21,3.91-27.39-3.65s-4.51-18.17,4.21-23.71,21-3.91,27.39,3.65,4.56,18-4,23.56" transform="translate(-27.13 -20.68)" />
    </g>
    <g id="flower-4">
        <path id="path3487" class="cls-12" d="M120.55,407.62c-2.88-4.77-2.93-19.47,0-28.57,4.07-12.6,13.59-11.2,25.36-8.92,9.39,1.82,3.1,7.14,20.74,7.14,13.32,0,9.57,11.42,6.92,19.64-2.08,6.44-14.24,12.5-23,12.5-11.5,0-2.13,4,9.22,1.78,11.89-2.3,16-3.49,23-8.92,9.2-7.13,25.75,5.66,27.66,7.14,5.21,4-9.22,12.92-9.22,19.64,0,10.67,2.08,10.89-6.91,17.86-11.26,8.71-26.59-3.84-32.28-7.15-6.81-3.95-8.36-12.95-11.52-17.85-4.25-6.59,2.66,14.84,6.91,21.43,6.52,10.1,4.47,17.85-9.22,17.85-15.17,0-14.44-4.34-27.66-1.78-12.69,2.45-23,.28-23-10.72,0-10.78,2.26-15.93,4.61-23.21,3.43-10.65-3.78,11.7-4.61,14.28-2.36,7.31-17.54,7.15-27.66,7.15-11.08,0-12.94-9.34-16.13-14.29C49,425.39,40,428.77,44.48,414.77c2-6.26,22.21-3.58,30-3.58,11,0,29.58-1.78,9.22-1.78A71.18,71.18,0,0,1,56,404.05c-8.54-3.3-11.53-9.08-11.53-17.85,0-13.9,17.36-7.57,23.06-5.36,5.86,2.27,11.89-6.39,18.43-8.93,12.68-4.91,16.81,9.22,18.44,14.29,3.81,11.79,12.37,6.81,16.14,21.42Z" transform="translate(-27.13 -20.68)" />
        <path id="path3489" class="cls-13" d="M137.52,427.82c-9.41,4.79-22.34,3.08-28.88-3.8s-4.21-16.34,5.2-21.12,22.34-3.08,28.88,3.8,4.26,16.16-4.95,21" transform="translate(-27.13 -20.68)" />
        <path id="path3572" class="cls-11" d="M69.57,327.64c-5.92,1.36-23.33-10.37-30.9-13.87-15-6.92-12.76-10.59-5-17.2,3-2.6,8.27-3.28,12.24-5.09,3.71-1.7-5-12.18,11.76-7.37,8.24,2.36,17.92,11,22.43,15.74,12,12.53,8.51,6.53,1.25-1.08-3.79-4-3.53-15-2.51-19.34,2.61-11.19,10.61,1.67,19.45-5.89,7.48-6.39,13.38-.37,23.53,6.75,6.75,4.74-6.16,13.45-7.68,20q-.8,3.36-1.57,6.71c-1.64,7,10-11.21,15.84-16.23,7.67-6.56,16.82,3.75,21.49,11.17,5.06,8.05-.06,9.06,13.49,15.33,5.8,2.68-6.25,14.55-8.15,17.72-4,6.66-16.78,3.85-23.84-1.1a97.9,97.9,0,0,0-15.06-8.62C107,321,131.5,337.6,138,344.37c7.64,8-2.67,12.71-8.63,15.43-8.66,4-5.56-.61-16,8.31-3.88,3.32-18.36-5.07-20.54-6.6-7.21-5.06,4.83-12.33,3.44-19.07-2.07-10-2.9-.26-6.27,5.36-4,6.67-3.75,11.27-11.13,17.58-7.93,6.79-18.55-1.52-23.53-6.74-9.79-10.25,3.06-11.17-14.28-12-17.55-.81-8.41-17-4.23-20.55,9.24-7.91,17.72-3.77,32.78,1.52Z" transform="translate(-27.13 -20.68)" />
        <path id="path3582" class="cls-9" d="M108,334.77c-8.73,5.54-21,3.91-27.39-3.65S76.11,313,84.84,307.41s21-3.9,27.39,3.65,4.56,18-4,23.56" transform="translate(-27.13 -20.68)" />
        <path id="path3610" class="cls-14" d="M205.39,379.74c-6.62-.15-25.34,3.91-36.36,7.93-15.28,5.59-11.73,10.08-6.64,15.48,4.07,4.3,9.67-.4,13,8.64,2.48,6.83,16.31,1.74,26.28-1.9,7.81-2.86,13.25-10.77,11.61-15.29-2.14-5.89,4.67-2.2,4,4.23-.71,6.73-1.46,9.19-7.06,14.29-7.36,6.69,12,11.63,14.24,12.19,6.1,1.55,14.73-8.31,23.28-10.17,13.58-3,14.24-2,21.43-8.51,9-8.18-9.84-12.55-15.1-14.55-6.31-2.39-18-.69-24.87-.95-9.17-.35,19.38-2.75,28.56-2.4,14.06.53,23.55-2.67,21-9.69-2.83-7.77-8.22-6.19-7.43-13.67.77-7.19-3.93-11.9-17.92-8.84-13.73,3-19.85,5.58-28.69,8.8-12.9,4.72,14.19-5.18,17.32-6.32,8.86-3.24,5.82-11,3.94-16.16-2.07-5.68-14.29-4-21.19-4.3-10.07-.39-7.46-6-24.44.23-7.58,2.77-.41,12.37,1,16.35,2.06,5.66,3.24,15.65-.55,5.22-2.26-6.2-6.92-9.68-12-12.69-5.79-3.46-13.7-3.39-24.87-1-17.68,3.86-6.39,11-2.52,13.3s-5.92,7.87-7.92,11.93c-3.89,7.86,14.86,6.05,21.61,5.48C190.83,376.1,186.09,381.87,205.39,379.74Z" transform="translate(-27.13 -20.68)" />
        <path id="path3612" class="cls-9" d="M234.25,382.85c4.33-6.15-.25-12.3-10.23-13.74s-21.58,2.38-25.91,8.53.25,12.3,10.22,13.74,21.36-2.3,25.8-8.36" transform="translate(-27.13 -20.68)" />
        <path id="path3616" class="cls-8" d="M267.36,445c-2.21-3.68-2.25-15,0-22,3.13-9.72,10.45-8.64,19.5-6.88,7.22,1.4,2.38,5.5,15.95,5.5,10.24,0,7.36,8.81,5.32,15.14-1.6,5-10.95,9.64-17.73,9.64-8.84,0-1.64,3.07,7.09,1.38,9.14-1.78,12.33-2.7,17.72-6.89,7.08-5.49,19.8,4.37,21.27,5.51,4,3.11-7.09,10-7.09,15.14,0,8.23,1.6,8.39-5.31,13.77-8.66,6.72-20.45-3-24.82-5.51-5.23-3-6.42-10-8.86-13.76-3.26-5.08,2.05,11.44,5.32,16.51,5,7.79,3.44,13.77-7.09,13.77-11.66,0-11.1-3.35-21.27-1.38-9.76,1.9-17.72.22-17.72-8.26,0-8.31,1.74-12.28,3.55-17.89,2.64-8.21-2.91,9-3.55,11-1.81,5.63-13.48,5.51-21.27,5.51-8.51,0-9.94-7.2-12.4-11-3.59-5.57-10.57-3-7.09-13.76,1.55-4.82,17.07-2.75,23-2.75,8.5,0,22.75-1.38,7.09-1.38a54.61,54.61,0,0,1-21.27-4.13c-6.56-2.55-8.86-7-8.86-13.77,0-10.71,13.34-5.83,17.72-4.12s9.15-4.93,14.18-6.89c9.75-3.78,12.92,7.11,14.18,11C257.89,437.58,264.46,433.74,267.36,445Z" transform="translate(-27.13 -20.68)" />
        <path id="path3618" class="cls-9" d="M280.44,458.79c-7.24,3.69-17.18,2.38-22.2-2.93s-3.24-12.6,4-16.29,17.17-2.37,22.2,2.94,3.28,12.46-3.81,16.18" transform="translate(-27.13 -20.68)" />
    </g>
    <g id="flower-3">
        <path id="path3431" class="cls-14" d="M545.73,551.78c3.25-4.46,7.34-19.18,7.87-28.61.74-13.08-6.05-12.73-14.58-11.76-6.82.78-4.06,6.81-15.92,4.85-9-1.47-9.58,10.38-10.06,18.91-.38,6.68,6.13,14.1,12.05,15.08,7.73,1.27.34,4.22-6.69.76-7.36-3.62-9.82-5.28-13-11.5-4.22-8.16-18.88,2.82-20.57,4.09-4.61,3.46,2.64,14,.79,20.69-2.94,10.69-4.4,10.67-.27,18.65,5.16,10,18.93-.89,23.66-3.57,5.67-3.21,9.19-12,12.67-16.6,4.67-6.13-5.89,14.57-10.56,20.69-7.17,9.39-7.93,17.39,1.28,18.91,10.2,1.68,10.9-2.75,19.08,1.28,7.86,3.87,15.42,2.84,18.45-8.17,3-10.8,2.87-16.21,3.3-23.76.63-11.05-.69,12.13-.84,14.82-.43,7.58,9.82,9.1,16.63,10.22,7.44,1.23,11.27-7.92,14.78-12.52,5.13-6.72,10.3-2.33,11.12-16.86.37-6.49-13.94-6-19.16-6.9-7.43-1.23-19.39-5.07-5.7-2.81,8.13,1.34,14.27-.24,20.07-2.3,6.65-2.36,10.25-7.81,12.66-16.61,3.84-13.92-9.57-9.5-14-7.92s-6.24-7.72-9.94-11c-7.17-6.32-13.84,7.37-16.33,12.26-5.81,11.4-10.19,5.46-16.75,19.67Z" transform="translate(-27.13 -20.68)" />
        <path id="path3433" class="cls-9" d="M528.73,570.14c5,5.83,14.17,5.56,20.46-.61s7.34-15.9,2.33-21.74-14.17-5.56-20.46.61-7.32,15.71-2.46,21.58" transform="translate(-27.13 -20.68)" />
        <path id="path3987" class="cls-15" d="M594.31,739.87c-6-1.76-21.92-.28-30.91,3-12.47,4.49-8.23,11.81-2.39,20.79,4.67,7.17,8.62,1.69,13.68,15.51,3.82,10.43,15.1,6.31,23.24,3.38,6.37-2.29,9.43-12.45,6.9-19.35-3.29-9,3.7-2.08,4.58,7,.92,9.55.82,12.92-3,19-5.07,7.94,13.51,19.59,15.66,20.93,5.85,3.66,11.33-8.57,18.6-9.26,11.55-1.11,12.38.5,17.34-7.27,6.2-9.72-11.79-20.43-17-24.54-6.24-4.93-16.41-5.21-22.62-7.18-8.35-2.64,16.82.55,25.16,3.2,12.8,4.06,20.6,1.65,16.67-9.07-4.35-11.89-8.84-10.87-9.86-21.49-1-10.2-6.31-18.08-18.21-16.94-11.66,1.11-16.58,3.42-23.79,6l14.13-5.09c7.23-2.6,2.7-14.48-.21-22.41-3.17-8.68-13.81-9.17-20.08-11.16-9.16-2.9-8.11-10.36-22-5.37-6.19,2.23,2.51,17.77,4.73,23.85,3.17,8.65,6.56,23.36.72,7.4-3.47-9.47-8.49-15.58-13.74-21.11-6-6.34-13.12-8.09-22.62-7.18-15,1.44-3.21,14.38.82,18.62s-3.5,10-4.37,15.37c-1.67,10.44,14.8,12.21,20.75,13,13.85,1.76,10.92,9,27.81,10.42Z" transform="translate(-27.13 -20.68)" />
        <path id="path3989" class="cls-9" d="M621.05,751.1c2.48-7.87-3.07-17.82-12.4-22.23s-18.88-1.6-21.36,6.27,3.08,17.82,12.4,22.22S618.4,759,621,751.31" transform="translate(-27.13 -20.68)" />
        <path id="path3999" class="cls-16" d="M589.85,644.57c-5.92,1.37-23.33-10.37-30.91-13.87-15-6.92-12.75-10.59-5-17.2,3-2.6,8.26-3.27,12.23-5.09,3.72-1.69-5-12.18,11.77-7.37,8.24,2.36,17.92,11,22.43,15.74,12,12.53,8.51,6.53,1.25-1.07-3.78-4-3.53-15-2.51-19.35,2.62-11.19,10.62,1.67,19.45-5.88,7.48-6.4,13.38-.38,23.53,6.74,6.75,4.74-6.15,13.46-7.68,20-.52,2.24-1,4.48-1.57,6.72-1.64,7,10-11.22,15.84-16.24,7.67-6.56,16.83,3.75,21.49,11.18,5.06,8-.06,9.06,13.49,15.32,5.8,2.68-6.25,14.55-8.15,17.72-4,6.66-16.78,3.85-23.84-1.1a96.58,96.58,0,0,0-15.06-8.61c-9.33-4.31,15.19,12.33,21.65,19.09,7.64,8-2.67,12.71-8.63,15.44-8.65,4-5.56-.62-16,8.3-3.88,3.32-18.37-5.07-20.55-6.6-7.21-5.06,4.84-12.32,3.44-19.07-2.06-10-2.9-.26-6.27,5.37-4,6.66-3.74,11.26-11.13,17.58-7.93,6.78-18.55-1.53-23.53-6.74-9.79-10.26,3.06-11.17-14.28-12-17.55-.82-8.41-17-4.24-20.56,9.25-7.9,17.73-3.76,32.79,1.52Z" transform="translate(-27.13 -20.68)" />
        <path id="path4001" class="cls-9" d="M628.33,651.7c-8.73,5.54-21,3.91-27.39-3.64s-4.51-18.17,4.21-23.71,21-3.91,27.39,3.64,4.56,18-4,23.56" transform="translate(-27.13 -20.68)" />
        <path id="path4005" class="cls-17" d="M519.24,696c-1.63-3.69-1.66-15,0-22,2.31-9.71,7.7-8.64,14.36-6.88,5.32,1.4,1.76,5.51,11.75,5.51,7.54,0,5.42,8.8,3.91,15.14-1.17,5-8.06,9.63-13,9.63-6.51,0-1.21,3.07,5.22,1.38,6.73-1.77,9.08-2.7,13.05-6.88,5.21-5.5,14.59,4.36,15.67,5.5,3,3.11-5.22,10-5.22,15.15,0,8.22,1.18,8.39-3.92,13.76-6.37,6.72-15-3-18.27-5.51-3.86-3-4.74-10-6.53-13.76-2.41-5.08,1.51,11.44,3.92,16.52,3.69,7.78,2.53,13.76-5.22,13.76-8.6,0-8.18-3.35-15.67-1.37-7.19,1.89-13.05.21-13.05-8.26,0-8.32,1.28-12.28,2.61-17.9,1.95-8.2-2.14,9-2.61,11-1.34,5.64-9.93,5.51-15.66,5.51-6.28,0-7.33-7.2-9.14-11-2.64-5.58-7.78-3-5.22-13.77,1.14-4.82,12.57-2.75,17-2.75,6.26,0,16.75-1.38,5.22-1.38a31.35,31.35,0,0,1-15.67-4.13c-4.83-2.55-6.52-7-6.52-13.76,0-10.72,9.82-5.83,13.05-4.13s6.74-4.93,10.44-6.88c7.18-3.79,9.52,7.11,10.45,11,2.15,9.09,7,5.25,9.13,16.52Z" transform="translate(-27.13 -20.68)" />
        <path id="path4007" class="cls-9" d="M528.87,709.79a11.79,11.79,0,1,1,.14-.1" transform="translate(-27.13 -20.68)" />
    </g>
    <g id="flower2">
        <path id="path3622" class="cls-18" d="M418.88,469.23c-3.51-4-11.21-2.65-15.69-4.58-6.55-2.81-7.55-2.27-9.51-9.85-1-4,12.7-7.38,14.09-8.37,2.06-1.48,4.92-15.41,6.32-18.2,3.6-7.15,10.19,7.62,11.26,9.88,1.91,4.05,4.08,7.91,6,11.95,2.64,5.59-1.51-13.28.22-19.38,2.23-7.88,3-14.67,9.73-9.52,6.43,4.9,8.26,2.48,14,.24,7-2.74,6,12.65,6,14.1-.06,5.19-8,13.79-8.94,17.07-1.57,5.54-13.7,16.41-3.54,4.25,6.43-7.7,7.43-9.56,15-9.44,4.07.07,11.91,4.15,14.78,7.79,4.6,5.83-5.05,7,4.22,14.07,5.2,4-2.23,15.41-5.47,19.29-5.57,6.67-7.91,7.42-13.18,5.16s-10-10.3-14.7-14.25c-9.05-7.65.34,4.8,3.4,8.67a97.57,97.57,0,0,1,9.46,14.16c2.16,4.58-7.15,7.42-11.46,7.34-4.68-.08-9.58,7.71-15,11.59-4.49,3.21-11-7.82-13-12.07-2.94-6.22,4.21-11.41,8.94-17.07,7.88-9.44-4.15,2.85-7.07,6.34l-13.3,15.92c-5.34,6.39-9.49,1-14-2.39-7.06-5.38-5.49-10.43-.7-16.16,2.73-3.27-8.38-3.24-9.53-7.7-2.15-8.31,3.06-15,9-19.23,6.16-4.4,14.58,1.36,22.74.39Z" transform="translate(-27.13 -20.68)" />
        <path id="path3624" class="cls-19" d="M443.06,483.94c-5.05,4.07-12,2.62-15.49-3.25s-2.26-13.93,2.79-18,12-2.63,15.49,3.24,2.29,13.78-2.65,17.9" transform="translate(-27.13 -20.68)" />
        <path id="path3661" class="cls-8" d="M543.61,329.19c-2.21-3.68-2.25-15,0-22,3.13-9.71,10.45-8.64,19.5-6.88,7.22,1.4,2.38,5.51,15.95,5.51,10.24,0,7.35,8.8,5.31,15.14-1.59,5-10.94,9.63-17.72,9.63-8.84,0-1.64,3.08,7.09,1.38,9.14-1.77,12.33-2.69,17.72-6.88,7.08-5.49,19.8,4.37,21.27,5.5,4,3.11-7.09,10-7.09,15.15,0,8.22,1.6,8.39-5.32,13.76-8.65,6.72-20.44-3-24.81-5.5-5.24-3.06-6.43-10-8.86-13.77-3.27-5.08,2.05,11.44,5.32,16.52,5,7.79,3.44,13.76-7.09,13.76-11.67,0-11.1-3.35-21.27-1.37-9.76,1.89-17.72.21-17.72-8.26,0-8.31,1.74-12.28,3.55-17.9,2.64-8.2-2.91,9-3.55,11-1.81,5.63-13.48,5.5-21.27,5.5-8.51,0-9.95-7.19-12.4-11-3.59-5.58-10.57-3-7.09-13.77,1.55-4.82,17.07-2.75,23-2.75,8.5,0,22.75-1.38,7.09-1.38A54.62,54.62,0,0,1,494,326.44c-6.56-2.55-8.86-7-8.86-13.77,0-10.71,13.34-5.83,17.72-4.13s9.15-4.93,14.18-6.88c9.75-3.79,12.92,7.11,14.18,11,2.92,9.09,9.5,5.25,12.4,16.52Z" transform="translate(-27.13 -20.68)" />
        <path id="path3663" class="cls-9" d="M556.69,343c-7.24,3.69-17.18,2.38-22.2-2.93s-3.24-12.6,4-16.28,17.17-2.38,22.2,2.93,3.28,12.46-3.81,16.18" transform="translate(-27.13 -20.68)" />
        <path id="path3667" class="cls-8" d="M531.7,411.76c-2.22-3.68-2.26-15,0-22,3.12-9.72,10.44-8.64,19.49-6.88,7.22,1.4,2.38,5.5,15.95,5.5,10.24,0,7.36,8.8,5.32,15.14-1.6,5-11,9.64-17.72,9.64-8.84,0-1.64,3.07,7.08,1.38,9.14-1.78,12.34-2.7,17.73-6.89,7.07-5.49,19.8,4.37,21.26,5.51,4,3.11-7.09,10-7.09,15.14,0,8.23,1.61,8.39-5.31,13.77-8.65,6.72-20.44-3-24.81-5.51-5.24-3.05-6.43-10-8.86-13.77-3.27-5.07,2,11.45,5.31,16.52,5,7.79,3.44,13.77-7.09,13.77-11.66,0-11.1-3.35-21.26-1.38-9.76,1.9-17.73.22-17.73-8.26,0-8.31,1.74-12.28,3.55-17.89,2.64-8.21-2.91,9-3.55,11-1.81,5.63-13.48,5.51-21.26,5.51-8.52,0-9.95-7.2-12.41-11-3.59-5.57-10.56-3-7.09-13.76,1.55-4.82,17.08-2.75,23-2.75,8.5,0,22.75-1.38,7.09-1.38A54.61,54.61,0,0,1,482.07,409c-6.56-2.55-8.86-7-8.86-13.77,0-10.71,13.34-5.83,17.72-4.13s9.15-4.92,14.18-6.88c9.75-3.78,12.92,7.11,14.18,11C522.22,404.34,528.8,400.5,531.7,411.76Z" transform="translate(-27.13 -20.68)" />
        <path id="path3669" class="cls-9" d="M542.08,426.89c-7.24,3.69-17.18,2.38-22.2-2.93s-3.24-12.6,4-16.28,17.17-2.38,22.2,2.93,3.28,12.46-3.81,16.18" transform="translate(-27.13 -20.68)" />
        <path id="path3673" class="cls-8" d="M433,364.9c-2.21-3.68-2.25-15,0-22,3.13-9.72,10.45-8.64,19.5-6.89,7.22,1.4,2.38,5.51,16,5.51,10.24,0,7.36,8.8,5.32,15.14-1.6,5-11,9.64-17.73,9.64-8.84,0-1.64,3.07,7.09,1.37,9.14-1.77,12.34-2.69,17.73-6.88,7.07-5.49,19.79,4.37,21.26,5.51,4,3.1-7.09,10-7.09,15.14,0,8.23,1.6,8.39-5.31,13.76-8.66,6.72-20.44-3-24.81-5.5-5.24-3.05-6.43-10-8.87-13.77-3.26-5.07,2.05,11.44,5.32,16.52,5,7.79,3.44,13.77-7.09,13.77-11.66,0-11.1-3.35-21.27-1.38-9.75,1.89-17.72.22-17.72-8.26,0-8.31,1.74-12.28,3.55-17.89,2.64-8.21-2.91,9-3.55,11-1.81,5.63-13.48,5.5-21.26,5.5-8.52,0-10-7.19-12.41-11-3.59-5.57-10.56-3-7.09-13.76,1.55-4.83,17.07-2.76,23-2.76,8.5,0,22.75-1.37,7.09-1.37a54.61,54.61,0,0,1-21.27-4.13c-6.56-2.55-8.86-7-8.86-13.77,0-10.71,13.34-5.83,17.72-4.13s9.15-4.93,14.18-6.88c9.75-3.79,12.92,7.11,14.18,11,2.93,9.1,9.5,5.26,12.4,16.52Z" transform="translate(-27.13 -20.68)" />
        <path id="path3675" class="cls-9" d="M446,378.68c-7.24,3.69-17.18,2.38-22.2-2.93s-3.24-12.6,4-16.28S445,357.09,450,362.4s3.28,12.46-3.81,16.18" transform="translate(-27.13 -20.68)" />
    </g>
    <g id="flower-1">
        <path id="path3219" class="cls-20" d="M403.71,117.15c-2.89-4.78-2.94-19.48,0-28.57,4.06-12.61,13.59-11.21,25.35-8.93,9.4,1.82,3.1,7.14,20.75,7.14,13.32,0,9.57,11.42,6.92,19.64-2.08,6.44-14.24,12.5-23.06,12.5-11.49,0-2.13,4,9.23,1.79,11.88-2.31,16-3.5,23.05-8.93,9.19-7.13,25.75,5.66,27.66,7.14,5.2,4-9.22,12.92-9.22,19.64,0,10.67,2.08,10.89-6.92,17.86-11.25,8.72-26.59-3.84-32.27-7.14-6.34,2.25-7.89-6.66-11.53-17.86-4.25-6.59,2.67,14.84,6.92,21.43,6.52,10.1,4.47,17.85-9.22,17.85-15.17,0-14.44-4.34-27.66-1.78-12.7,2.46-23,.28-23-10.72,0-10.78,2.25-15.92,4.61-23.21,3.43-10.64-3.78,11.7-4.61,14.29-2.36,7.3-17.54,7.14-27.67,7.14-11.07,0-12.94-9.34-16.13-14.29-4.67-7.23-13.74-3.85-9.22-17.85,2-6.26,22.2-3.57,30-3.57,11.06,0,29.59-1.79,9.22-1.79a71.18,71.18,0,0,1-27.66-5.36c-8.53-3.3-11.52-9.07-11.52-17.85,0-13.9,17.35-7.57,23.05-5.36,5.87,2.27,11.89-6.39,18.44-8.93,12.68-4.91,16.81,9.23,18.44,14.29,3.81,11.8,12.36,6.81,16.14,21.43Z" transform="translate(-27.13 -20.68)" />
        <path id="path3221" class="cls-21" d="M412.69,141.05c-9.41,4.78-22.34,3.08-28.88-3.81s-4.2-16.34,5.21-21.12,22.33-3.08,28.87,3.8,4.26,16.16-4.95,21" transform="translate(-27.13 -20.68)" />
        <path id="path3592" class="cls-8" d="M429.47,261.4c3.07,3.28,5.88,14.38,5.37,21.59-.7,10-8.15,10.08-17.47,9.75-7.42-.26-3.68-5-17-2.94-10.05,1.58-9.37-7.5-8.91-14,.36-5.1,8.4-11.12,15.05-12.17,8.68-1.36.86-3.26-7.29-.26-8.54,3.15-11.46,4.54-15.73,9.48-5.61,6.47-20.51-1.23-22.23-2.12-4.68-2.43,4.54-10.86,3.28-15.94-2-8.06-3.62-8,1.86-14.31,6.86-7.92,20.8-.24,25.7,1.59,5.9,2.17,8.76,8.79,12.06,12.12,4.45,4.47-4.8-10.91-9.25-15.37-6.81-6.87-6.72-13,3.61-14.58,11.46-1.81,11.72,1.57,21.22-1.93,9.12-3.36,17.35-2.94,19.41,5.37,2,8.14,1.29,12.3.88,18.09-.58,8.44.65-9.3.8-11.35.41-5.8,11.9-7.47,19.54-8.67,8.37-1.3,11.53,5.53,14.87,8.89,4.88,4.91,11.09,1.28,10.32,12.4-.36,5-16.1,5.33-22,6.24-8.34,1.31-22,4.86-6.62,2.44a56.43,56.43,0,0,1,21.89.78c7.06,1.49,10.41,5.49,12.06,12.12,2.61,10.5-11.68,7.78-16.4,6.78s-7.77,6.24-12.24,8.93c-8.65,5.21-14.42-5-16.61-8.61-5.09-8.46-10.62-3.69-16.21-14.29Z" transform="translate(-27.13 -20.68)" />
        <path id="path3594" class="cls-9" d="M413.25,249.9c6.2-4.73,16.28-5,22.51-.54s6.25,11.85.05,16.58-16.29,5-22.52.54S407,254.77,413.08,250" transform="translate(-27.13 -20.68)" />
        <path id="path3604" class="cls-15" d="M564.35,79.94c-4.81,4-12.46,18-14.79,27.31-3.22,12.85,5.22,13.41,15.93,13.57,8.55.13,6.21-6.21,20.5-2.7,10.79,2.65,13.66-9,15.77-17.39,1.65-6.57-5.07-14.78-12.21-16.53-9.31-2.29.33-4.23,8.39.12,8.44,4.57,11.19,6.54,14.06,13.12,3.77,8.64,23.8-.29,26.11-1.32,6.3-2.82-.79-14.19,2.69-20.61,5.52-10.2,7.32-10,3.64-18.44-4.61-10.57-23.53-1.62-29.84.41C607,59.91,601.12,68.2,596,72.25c-6.85,5.45,9.84-13.65,16.69-19.1,10.51-8.36,12.86-16.18,1.77-18.9-12.3-3-14,1.28-23.34-3.79-9-4.88-18.53-4.85-24.22,5.65-5.58,10.31-6.41,15.67-8.27,23.1-2.73,10.86,3-11.93,3.65-14.57,1.87-7.45-10.51-10.31-18.71-12.32-9-2.21-15.32,6.34-20.47,10.44-7.52,6-13.12,1-16.71,15.23-1.6,6.38,16.15,7.83,22.43,9.37,9,2.2,23,7.59,6.55,3.54-9.8-2.4-17.67-1.65-25.18-.38-8.63,1.46-14,6.39-18.58,14.78C484.44,98.58,501.77,96,507.53,95c5.93-1,6.33,8.47,10.33,12.2,7.73,7.21,18.38-5.47,22.33-10,9.19-10.51,13.54-4,24.16-17.27Z" transform="translate(-27.13 -20.68)" />
        <path id="path3606" class="cls-9" d="M588.58,64c-5.15-6.44-16.51-7.39-25.37-2.11S551.35,76.7,556.5,83.15s16.5,7.38,25.36,2.1,11.82-14.59,6.85-21" transform="translate(-27.13 -20.68)" />
        <path id="path3647" class="cls-22" d="M553.26,191.57c1.65-5.56-6.76-16.29-3.83-24.94,2.58-7.61,15.41-1.7,22.88-.18,4.31.88-.48,6.4,10.36.5,9.92-5.41,13,10.86,12.84,13.89-.35,5.5-10.93,16.88-11.06,17.08-4.23,6.54,14.52-9.7,22.66-9.89,10-.24,20.39-.43,19.8,8.86-.63,10-8.86,6.4,2,14.9,7.1,5.56-6.49,17-11,17.08-8.82.21-16.34-2.87-24.12-6.52-14.48-6.8-4.53-.35-.4,6.36,3.94,6.42,7.34,5.53,9.05,14.73,2.67,14.46-13.72,4.5-15.18,3.36s-4.35,11.74-7.26,16.24c-2.28,3.52-20.32-4.49-22.47-6.18-5.74-4.5-2.58-11.87-2.08-19.75.63-10,6.13-18.08,1-3-3.55,10.49-3.9,14.11-14.34,16.41-11.57,2.57-13.84-7.15-15.5-11.2-1-2.53-12.85-5.32-16.52-8.2-6.37-5-1.66-11.24,4-16.91,4-4,19.54-.1,22.88-.18,12.69-.3-8.28-2.79-13.13-2.67-8.78.21-14.94-4.82-20.32-7.35-9.27-4.36-3.73-9.16,1.31-14.23,9-9.1,7.49,0,8.39-14.4.63-9.84,11.62-5.85,19.48-5.71,7.68.15,19.41,15.23,20.65,21.92Z" transform="translate(-27.13 -20.68)" />
        <path id="path3649" class="cls-23" d="M569.8,217.19c-8.07,2.68-16.79-.64-19.48-7.39s1.68-14.4,9.75-17.08,16.79.64,19.48,7.4-1.59,14.25-9.53,17" transform="translate(-27.13 -20.68)" />
    </g>
</svg>